<svg width="800" height="600" viewBox="0 0 800 600" fill="none" xmlns="http://www.w3.org/2000/svg">
<rect width="800" height="600" rx="70" fill="#2ECC71"/>
<rect x="50" y="50" width="700" height="400" rx="70" fill="#F7F8F9"/>
<mask id="path-3-outside-1_0_1" maskUnits="userSpaceOnUse" x="115" y="472" width="574" height="101" fill="black">
<rect fill="white" x="115" y="472" width="574" height="101"/>
<path d="M120.996 566V478.727H150.484C157.331 478.727 162.927 479.963 167.274 482.435C171.649 484.878 174.888 488.188 176.99 492.364C179.092 496.54 180.143 501.199 180.143 506.341C180.143 511.483 179.092 516.156 176.99 520.361C174.916 524.565 171.706 527.918 167.359 530.418C163.013 532.889 157.444 534.125 150.655 534.125H129.518V524.75H150.314C155.001 524.75 158.765 523.94 161.606 522.321C164.447 520.702 166.507 518.514 167.785 515.759C169.092 512.974 169.746 509.835 169.746 506.341C169.746 502.847 169.092 499.722 167.785 496.966C166.507 494.21 164.433 492.051 161.564 490.489C158.694 488.898 154.888 488.102 150.143 488.102H131.564V566H120.996ZM200.767 566V478.727H211.336V556.625H251.904V566H200.767ZM280.955 566H269.875L301.921 478.727H312.83L344.875 566H333.796L307.716 492.534H307.034L280.955 566ZM285.046 531.909H329.705V541.284H285.046V531.909ZM345.663 478.727H357.765L381.97 519.466H382.992L407.197 478.727H419.299L387.765 530.034V566H377.197V530.034L345.663 478.727ZM436.567 566V478.727H447.136V556.625H487.704V566H436.567ZM518.236 478.727V566H507.667V478.727H518.236ZM590.752 500.545C590.241 496.227 588.167 492.875 584.531 490.489C580.895 488.102 576.434 486.909 571.15 486.909C567.287 486.909 563.906 487.534 561.008 488.784C558.139 490.034 555.895 491.753 554.275 493.94C552.684 496.128 551.889 498.614 551.889 501.398C551.889 503.727 552.443 505.73 553.551 507.406C554.687 509.054 556.136 510.432 557.897 511.54C559.659 512.619 561.505 513.514 563.437 514.224C565.369 514.906 567.145 515.46 568.764 515.886L577.627 518.273C579.9 518.869 582.429 519.693 585.213 520.744C588.025 521.795 590.71 523.23 593.267 525.048C595.852 526.838 597.983 529.139 599.659 531.952C601.335 534.764 602.173 538.216 602.173 542.307C602.173 547.023 600.937 551.284 598.466 555.091C596.022 558.898 592.443 561.923 587.727 564.168C583.039 566.412 577.343 567.534 570.639 567.534C564.389 567.534 558.977 566.526 554.403 564.509C549.858 562.491 546.278 559.679 543.664 556.071C541.079 552.463 539.616 548.273 539.275 543.5H550.184C550.468 546.795 551.576 549.523 553.508 551.682C555.468 553.812 557.94 555.403 560.923 556.455C563.934 557.477 567.173 557.989 570.639 557.989C574.673 557.989 578.295 557.335 581.505 556.028C584.716 554.693 587.258 552.847 589.133 550.489C591.008 548.102 591.946 545.318 591.946 542.136C591.946 539.239 591.136 536.881 589.517 535.062C587.897 533.244 585.767 531.767 583.125 530.631C580.483 529.494 577.627 528.5 574.559 527.648L563.821 524.58C557.002 522.619 551.605 519.821 547.627 516.185C543.65 512.548 541.662 507.79 541.662 501.909C541.662 497.023 542.983 492.761 545.625 489.125C548.295 485.46 551.875 482.619 556.363 480.602C560.88 478.557 565.923 477.534 571.491 477.534C577.116 477.534 582.116 478.543 586.491 480.56C590.866 482.548 594.332 485.276 596.889 488.741C599.474 492.207 600.838 496.142 600.98 500.545H590.752ZM618.376 488.102V478.727H683.83V488.102H656.387V566H645.819V488.102H618.376Z"/>
</mask>
<path d="M120.996 566V478.727H150.484C157.331 478.727 162.927 479.963 167.274 482.435C171.649 484.878 174.888 488.188 176.99 492.364C179.092 496.54 180.143 501.199 180.143 506.341C180.143 511.483 179.092 516.156 176.99 520.361C174.916 524.565 171.706 527.918 167.359 530.418C163.013 532.889 157.444 534.125 150.655 534.125H129.518V524.75H150.314C155.001 524.75 158.765 523.94 161.606 522.321C164.447 520.702 166.507 518.514 167.785 515.759C169.092 512.974 169.746 509.835 169.746 506.341C169.746 502.847 169.092 499.722 167.785 496.966C166.507 494.21 164.433 492.051 161.564 490.489C158.694 488.898 154.888 488.102 150.143 488.102H131.564V566H120.996ZM200.767 566V478.727H211.336V556.625H251.904V566H200.767ZM280.955 566H269.875L301.921 478.727H312.83L344.875 566H333.796L307.716 492.534H307.034L280.955 566ZM285.046 531.909H329.705V541.284H285.046V531.909ZM345.663 478.727H357.765L381.97 519.466H382.992L407.197 478.727H419.299L387.765 530.034V566H377.197V530.034L345.663 478.727ZM436.567 566V478.727H447.136V556.625H487.704V566H436.567ZM518.236 478.727V566H507.667V478.727H518.236ZM590.752 500.545C590.241 496.227 588.167 492.875 584.531 490.489C580.895 488.102 576.434 486.909 571.15 486.909C567.287 486.909 563.906 487.534 561.008 488.784C558.139 490.034 555.895 491.753 554.275 493.94C552.684 496.128 551.889 498.614 551.889 501.398C551.889 503.727 552.443 505.73 553.551 507.406C554.687 509.054 556.136 510.432 557.897 511.54C559.659 512.619 561.505 513.514 563.437 514.224C565.369 514.906 567.145 515.46 568.764 515.886L577.627 518.273C579.9 518.869 582.429 519.693 585.213 520.744C588.025 521.795 590.71 523.23 593.267 525.048C595.852 526.838 597.983 529.139 599.659 531.952C601.335 534.764 602.173 538.216 602.173 542.307C602.173 547.023 600.937 551.284 598.466 555.091C596.022 558.898 592.443 561.923 587.727 564.168C583.039 566.412 577.343 567.534 570.639 567.534C564.389 567.534 558.977 566.526 554.403 564.509C549.858 562.491 546.278 559.679 543.664 556.071C541.079 552.463 539.616 548.273 539.275 543.5H550.184C550.468 546.795 551.576 549.523 553.508 551.682C555.468 553.812 557.94 555.403 560.923 556.455C563.934 557.477 567.173 557.989 570.639 557.989C574.673 557.989 578.295 557.335 581.505 556.028C584.716 554.693 587.258 552.847 589.133 550.489C591.008 548.102 591.946 545.318 591.946 542.136C591.946 539.239 591.136 536.881 589.517 535.062C587.897 533.244 585.767 531.767 583.125 530.631C580.483 529.494 577.627 528.5 574.559 527.648L563.821 524.58C557.002 522.619 551.605 519.821 547.627 516.185C543.65 512.548 541.662 507.79 541.662 501.909C541.662 497.023 542.983 492.761 545.625 489.125C548.295 485.46 551.875 482.619 556.363 480.602C560.88 478.557 565.923 477.534 571.491 477.534C577.116 477.534 582.116 478.543 586.491 480.56C590.866 482.548 594.332 485.276 596.889 488.741C599.474 492.207 600.838 496.142 600.98 500.545H590.752ZM618.376 488.102V478.727H683.83V488.102H656.387V566H645.819V488.102H618.376Z" fill="#F7F8F9"/>
<path d="M120.996 566H115.996V571H120.996V566ZM120.996 478.727V473.727H115.996V478.727H120.996ZM167.274 482.435L164.802 486.781L164.819 486.791L164.836 486.8L167.274 482.435ZM176.99 492.364L172.524 494.612L172.524 494.612L176.99 492.364ZM176.99 520.361L172.518 518.125L172.512 518.137L172.506 518.149L176.99 520.361ZM167.359 530.418L169.831 534.764L169.841 534.758L169.852 534.752L167.359 530.418ZM129.518 534.125H124.518V539.125H129.518V534.125ZM129.518 524.75V519.75H124.518V524.75H129.518ZM161.606 522.321L159.13 517.977L159.13 517.977L161.606 522.321ZM167.785 515.759L163.259 513.634L163.254 513.644L163.25 513.654L167.785 515.759ZM167.785 496.966L163.25 499.07L163.259 499.089L163.268 499.108L167.785 496.966ZM161.564 490.489L159.139 494.861L159.156 494.871L159.172 494.88L161.564 490.489ZM131.564 488.102V483.102H126.564V488.102H131.564ZM131.564 566V571H136.564V566H131.564ZM125.996 566V478.727H115.996V566H125.996ZM120.996 483.727H150.484V473.727H120.996V483.727ZM150.484 483.727C156.77 483.727 161.437 484.867 164.802 486.781L169.745 478.088C164.418 475.059 157.891 473.727 150.484 473.727V483.727ZM164.836 486.8C168.404 488.793 170.904 491.393 172.524 494.612L181.456 490.115C178.872 484.982 174.893 480.963 169.712 478.069L164.836 486.8ZM172.524 494.612C174.241 498.023 175.143 501.9 175.143 506.341H185.143C185.143 500.497 183.943 495.056 181.456 490.115L172.524 494.612ZM175.143 506.341C175.143 510.781 174.241 514.678 172.518 518.125L181.462 522.597C183.943 517.635 185.143 512.185 185.143 506.341H175.143ZM172.506 518.149C170.901 521.401 168.416 524.042 164.866 526.083L169.852 534.752C174.995 531.794 178.931 527.729 181.474 522.573L172.506 518.149ZM164.888 526.071C161.517 527.988 156.875 529.125 150.655 529.125V539.125C158.013 539.125 164.509 537.79 169.831 534.764L164.888 526.071ZM150.655 529.125H129.518V539.125H150.655V529.125ZM134.518 534.125V524.75H124.518V534.125H134.518ZM129.518 529.75H150.314V519.75H129.518V529.75ZM150.314 529.75C155.515 529.75 160.23 528.861 164.082 526.665L159.13 517.977C157.301 519.02 154.487 519.75 150.314 519.75V529.75ZM164.082 526.665C167.753 524.573 170.571 521.634 172.321 517.863L163.25 513.654C162.442 515.394 161.141 516.831 159.13 517.977L164.082 526.665ZM172.311 517.883C173.97 514.349 174.746 510.469 174.746 506.341H164.746C164.746 509.201 164.214 511.6 163.259 513.634L172.311 517.883ZM174.746 506.341C174.746 502.214 173.971 498.34 172.303 494.823L163.268 499.108C164.214 501.103 164.746 503.48 164.746 506.341H174.746ZM172.321 494.862C170.557 491.058 167.69 488.132 163.955 486.097L159.172 494.88C161.176 495.971 162.457 497.362 163.25 499.07L172.321 494.862ZM163.988 486.116C160.119 483.971 155.382 483.102 150.143 483.102V493.102C154.393 493.102 157.27 493.825 159.139 494.861L163.988 486.116ZM150.143 483.102H131.564V493.102H150.143V483.102ZM126.564 488.102V566H136.564V488.102H126.564ZM131.564 561H120.996V571H131.564V561ZM200.767 566H195.767V571H200.767V566ZM200.767 478.727V473.727H195.767V478.727H200.767ZM211.336 478.727H216.336V473.727H211.336V478.727ZM211.336 556.625H206.336V561.625H211.336V556.625ZM251.904 556.625H256.904V551.625H251.904V556.625ZM251.904 566V571H256.904V566H251.904ZM205.767 566V478.727H195.767V566H205.767ZM200.767 483.727H211.336V473.727H200.767V483.727ZM206.336 478.727V556.625H216.336V478.727H206.336ZM211.336 561.625H251.904V551.625H211.336V561.625ZM246.904 556.625V566H256.904V556.625H246.904ZM251.904 561H200.767V571H251.904V561ZM280.955 566V571H284.486L285.667 567.673L280.955 566ZM269.875 566L265.182 564.277L262.713 571H269.875V566ZM301.921 478.727V473.727H298.43L297.227 477.004L301.921 478.727ZM312.83 478.727L317.523 477.004L316.32 473.727H312.83V478.727ZM344.875 566V571H352.038L349.569 564.277L344.875 566ZM333.796 566L329.084 567.673L330.265 571H333.796V566ZM307.716 492.534L312.428 490.861L311.247 487.534H307.716V492.534ZM307.034 492.534V487.534H303.504L302.322 490.861L307.034 492.534ZM285.046 531.909V526.909H280.046V531.909H285.046ZM329.705 531.909H334.705V526.909H329.705V531.909ZM329.705 541.284V546.284H334.705V541.284H329.705ZM285.046 541.284H280.046V546.284H285.046V541.284ZM280.955 561H269.875V571H280.955V561ZM274.569 567.723L306.614 480.451L297.227 477.004L265.182 564.277L274.569 567.723ZM301.921 483.727H312.83V473.727H301.921V483.727ZM308.136 480.451L340.182 567.723L349.569 564.277L317.523 477.004L308.136 480.451ZM344.875 561H333.796V571H344.875V561ZM338.508 564.327L312.428 490.861L303.004 494.207L329.084 567.673L338.508 564.327ZM307.716 487.534H307.034V497.534H307.716V487.534ZM302.322 490.861L276.243 564.327L285.667 567.673L311.746 494.207L302.322 490.861ZM285.046 536.909H329.705V526.909H285.046V536.909ZM324.705 531.909V541.284H334.705V531.909H324.705ZM329.705 536.284H285.046V546.284H329.705V536.284ZM290.046 541.284V531.909H280.046V541.284H290.046ZM345.663 478.727V473.727H336.721L341.403 481.345L345.663 478.727ZM357.765 478.727L362.064 476.173L360.61 473.727H357.765V478.727ZM381.97 519.466L377.671 522.02L379.124 524.466H381.97V519.466ZM382.992 519.466V524.466H385.837L387.291 522.02L382.992 519.466ZM407.197 478.727V473.727H404.352L402.898 476.173L407.197 478.727ZM419.299 478.727L423.559 481.345L428.241 473.727H419.299V478.727ZM387.765 530.034L383.505 527.416L382.765 528.62V530.034H387.765ZM387.765 566V571H392.765V566H387.765ZM377.197 566H372.197V571H377.197V566ZM377.197 530.034H382.197V528.62L381.457 527.416L377.197 530.034ZM345.663 483.727H357.765V473.727H345.663V483.727ZM353.466 481.281L377.671 522.02L386.268 516.912L362.064 476.173L353.466 481.281ZM381.97 524.466H382.992V514.466H381.97V524.466ZM387.291 522.02L411.495 481.281L402.898 476.173L378.694 516.912L387.291 522.02ZM407.197 483.727H419.299V473.727H407.197V483.727ZM415.039 476.109L383.505 527.416L392.025 532.652L423.559 481.345L415.039 476.109ZM382.765 530.034V566H392.765V530.034H382.765ZM387.765 561H377.197V571H387.765V561ZM382.197 566V530.034H372.197V566H382.197ZM381.457 527.416L349.922 476.109L341.403 481.345L372.937 532.652L381.457 527.416ZM436.567 566H431.567V571H436.567V566ZM436.567 478.727V473.727H431.567V478.727H436.567ZM447.136 478.727H452.136V473.727H447.136V478.727ZM447.136 556.625H442.136V561.625H447.136V556.625ZM487.704 556.625H492.704V551.625H487.704V556.625ZM487.704 566V571H492.704V566H487.704ZM441.567 566V478.727H431.567V566H441.567ZM436.567 483.727H447.136V473.727H436.567V483.727ZM442.136 478.727V556.625H452.136V478.727H442.136ZM447.136 561.625H487.704V551.625H447.136V561.625ZM482.704 556.625V566H492.704V556.625H482.704ZM487.704 561H436.567V571H487.704V561ZM518.236 478.727H523.236V473.727H518.236V478.727ZM518.236 566V571H523.236V566H518.236ZM507.667 566H502.667V571H507.667V566ZM507.667 478.727V473.727H502.667V478.727H507.667ZM513.236 478.727V566H523.236V478.727H513.236ZM518.236 561H507.667V571H518.236V561ZM512.667 566V478.727H502.667V566H512.667ZM507.667 483.727H518.236V473.727H507.667V483.727ZM590.752 500.545L585.787 501.133L586.31 505.545H590.752V500.545ZM584.531 490.489L581.788 494.669L581.788 494.669L584.531 490.489ZM561.008 488.784L559.028 484.193L559.019 484.197L559.011 484.2L561.008 488.784ZM554.275 493.94L550.257 490.965L550.244 490.982L550.232 490.999L554.275 493.94ZM553.551 507.406L549.38 510.163L549.407 510.204L549.435 510.245L553.551 507.406ZM557.897 511.54L555.235 515.772L555.26 515.788L555.285 515.803L557.897 511.54ZM563.437 514.224L561.712 518.917L561.742 518.929L561.773 518.939L563.437 514.224ZM568.764 515.886L570.064 511.058L570.05 511.055L570.036 511.051L568.764 515.886ZM577.627 518.273L576.328 523.101L576.343 523.105L576.358 523.109L577.627 518.273ZM585.213 520.744L583.447 525.422L583.454 525.425L583.462 525.428L585.213 520.744ZM593.267 525.048L590.369 529.123L590.395 529.141L590.421 529.159L593.267 525.048ZM599.659 531.952L603.954 529.392L603.954 529.392L599.659 531.952ZM598.466 555.091L594.272 552.368L594.265 552.379L594.258 552.39L598.466 555.091ZM587.727 564.168L585.578 559.653L585.568 559.658L587.727 564.168ZM554.403 564.509L552.375 569.079L552.386 569.083L554.403 564.509ZM543.664 556.071L539.6 558.983L539.608 558.994L539.615 559.004L543.664 556.071ZM539.275 543.5V538.5H533.905L534.288 543.856L539.275 543.5ZM550.184 543.5L555.166 543.071L554.772 538.5H550.184V543.5ZM553.508 551.682L549.782 555.016L549.805 555.042L549.829 555.067L553.508 551.682ZM560.923 556.455L559.261 561.17L559.288 561.18L559.315 561.189L560.923 556.455ZM581.505 556.028L583.391 560.659L583.408 560.652L583.426 560.645L581.505 556.028ZM589.133 550.489L593.047 553.601L593.056 553.589L593.065 553.578L589.133 550.489ZM589.517 535.062L593.251 531.737L593.251 531.737L589.517 535.062ZM583.125 530.631L581.149 535.224L581.149 535.224L583.125 530.631ZM574.559 527.648L573.186 532.455L573.203 532.46L573.221 532.465L574.559 527.648ZM563.821 524.58L562.439 529.385L562.447 529.387L563.821 524.58ZM547.627 516.185L544.254 519.875L544.254 519.875L547.627 516.185ZM545.625 489.125L541.584 486.18L541.58 486.186L545.625 489.125ZM556.363 480.602L558.413 485.163L558.419 485.16L558.426 485.157L556.363 480.602ZM586.491 480.56L584.398 485.1L584.41 485.106L584.422 485.111L586.491 480.56ZM596.889 488.741L592.865 491.71L592.873 491.72L592.881 491.731L596.889 488.741ZM600.98 500.545V505.545H606.144L605.977 500.384L600.98 500.545ZM595.718 499.957C595.033 494.172 592.145 489.505 587.274 486.308L581.788 494.669C584.189 496.245 585.45 498.283 585.787 501.133L595.718 499.957ZM587.274 486.308C582.662 483.282 577.198 481.909 571.15 481.909V491.909C575.671 491.909 579.127 492.923 581.788 494.669L587.274 486.308ZM571.15 481.909C566.754 481.909 562.674 482.62 559.028 484.193L562.989 493.375C565.137 492.448 567.819 491.909 571.15 491.909V481.909ZM559.011 484.2C555.461 485.747 552.471 487.974 550.257 490.965L558.294 496.915C559.318 495.532 560.817 494.321 563.005 493.368L559.011 484.2ZM550.232 490.999C548 494.068 546.889 497.59 546.889 501.398H556.889C556.889 499.637 557.369 498.188 558.319 496.881L550.232 490.999ZM546.889 501.398C546.889 504.548 547.649 507.545 549.38 510.163L557.722 504.649C557.237 503.915 556.889 502.907 556.889 501.398H546.889ZM549.435 510.245C550.971 512.473 552.923 514.318 555.235 515.772L560.56 507.307C559.349 506.546 558.403 505.635 557.667 504.568L549.435 510.245ZM555.285 515.803C557.326 517.054 559.47 518.093 561.712 518.917L565.162 509.532C563.541 508.935 561.992 508.185 560.51 507.277L555.285 515.803ZM561.773 518.939C563.806 519.657 565.715 520.254 567.491 520.722L570.036 511.051C568.574 510.666 566.931 510.155 565.101 509.509L561.773 518.939ZM567.464 520.714L576.328 523.101L578.927 513.445L570.064 511.058L567.464 520.714ZM576.358 523.109C578.425 523.652 580.785 524.417 583.447 525.422L586.979 516.067C584.073 514.969 581.375 514.087 578.897 513.437L576.358 523.109ZM583.462 525.428C585.85 526.32 588.151 527.546 590.369 529.123L596.164 520.974C593.269 518.915 590.201 517.271 586.963 516.061L583.462 525.428ZM590.421 529.159C592.393 530.525 594.038 532.288 595.364 534.511L603.954 529.392C601.927 525.991 599.311 523.151 596.113 520.937L590.421 529.159ZM595.364 534.511C596.476 536.379 597.173 538.894 597.173 542.307H607.173C607.173 537.538 606.193 533.15 603.954 529.392L595.364 534.511ZM597.173 542.307C597.173 546.096 596.196 549.405 594.272 552.368L602.659 557.814C605.678 553.164 607.173 547.949 607.173 542.307H597.173ZM594.258 552.39C592.392 555.297 589.585 557.746 585.578 559.653L589.876 568.682C595.301 566.1 599.653 562.498 602.673 557.792L594.258 552.39ZM585.568 559.658C581.72 561.5 576.805 562.534 570.639 562.534V572.534C577.882 572.534 584.359 571.324 589.886 568.677L585.568 559.658ZM570.639 562.534C564.915 562.534 560.221 561.61 556.421 559.934L552.386 569.083C557.733 571.442 563.863 572.534 570.639 572.534V562.534ZM556.431 559.938C552.596 558.236 549.751 555.951 547.714 553.138L539.615 559.004C542.805 563.407 547.119 566.746 552.375 569.079L556.431 559.938ZM547.729 553.159C545.723 550.36 544.543 547.07 544.263 543.144L534.288 543.856C534.689 549.475 536.435 554.566 539.6 558.983L547.729 553.159ZM539.275 548.5H550.184V538.5H539.275V548.5ZM545.203 543.929C545.566 548.144 547.028 551.938 549.782 555.016L557.234 548.348C556.124 547.107 555.371 545.447 555.166 543.071L545.203 543.929ZM549.829 555.067C552.392 557.854 555.58 559.873 559.261 561.17L562.585 551.739C560.3 550.934 558.544 549.771 557.188 548.297L549.829 555.067ZM559.315 561.189C562.889 562.403 566.675 562.989 570.639 562.989V552.989C567.671 552.989 564.98 552.552 562.531 551.72L559.315 561.189ZM570.639 562.989C575.215 562.989 579.492 562.246 583.391 560.659L579.62 551.397C577.098 552.424 574.131 552.989 570.639 552.989V562.989ZM583.426 560.645C587.295 559.035 590.569 556.716 593.047 553.601L585.22 547.377C583.947 548.977 582.136 550.351 579.585 551.412L583.426 560.645ZM593.065 553.578C595.667 550.266 596.946 546.38 596.946 542.136H586.946C586.946 544.256 586.349 545.939 585.202 547.4L593.065 553.578ZM596.946 542.136C596.946 538.258 595.835 534.639 593.251 531.737L585.783 538.388C586.437 539.122 586.946 540.219 586.946 542.136H596.946ZM593.251 531.737C591.065 529.283 588.293 527.411 585.1 526.038L581.149 535.224C583.24 536.123 584.73 537.206 585.783 538.388L593.251 531.737ZM585.1 526.038C582.23 524.803 579.16 523.736 575.898 522.83L573.221 532.465C576.095 533.264 578.735 534.185 581.149 535.224L585.1 526.038ZM575.933 522.84L565.194 519.772L562.447 529.387L573.186 532.455L575.933 522.84ZM565.202 519.774C558.9 517.962 554.259 515.473 551.001 512.495L544.254 519.875C548.951 524.169 555.105 527.276 562.439 529.385L565.202 519.774ZM551.001 512.495C548.161 509.898 546.662 506.529 546.662 501.909H536.662C536.662 509.05 539.139 515.199 544.254 519.875L551.001 512.495ZM546.662 501.909C546.662 497.982 547.703 494.771 549.67 492.064L541.58 486.186C538.262 490.752 536.662 496.064 536.662 501.909H546.662ZM549.666 492.07C551.781 489.167 554.648 486.855 558.413 485.163L554.314 476.042C549.102 478.384 544.809 481.754 541.584 486.18L549.666 492.07ZM558.426 485.157C562.219 483.439 566.547 482.534 571.491 482.534V472.534C565.299 472.534 559.541 473.674 554.301 476.047L558.426 485.157ZM571.491 482.534C576.514 482.534 580.78 483.432 584.398 485.1L588.585 476.019C583.452 473.653 577.719 472.534 571.491 472.534V482.534ZM584.422 485.111C588.113 486.789 590.871 489.006 592.865 491.71L600.912 485.773C597.793 481.545 593.619 478.307 588.56 476.008L584.422 485.111ZM592.881 491.731C594.843 494.361 595.873 497.304 595.982 500.707L605.977 500.384C605.803 494.98 604.105 490.054 600.897 485.752L592.881 491.731ZM600.98 495.545H590.752V505.545H600.98V495.545ZM618.376 488.102H613.376V493.102H618.376V488.102ZM618.376 478.727V473.727H613.376V478.727H618.376ZM683.83 478.727H688.83V473.727H683.83V478.727ZM683.83 488.102V493.102H688.83V488.102H683.83ZM656.387 488.102V483.102H651.387V488.102H656.387ZM656.387 566V571H661.387V566H656.387ZM645.819 566H640.819V571H645.819V566ZM645.819 488.102H650.819V483.102H645.819V488.102ZM623.376 488.102V478.727H613.376V488.102H623.376ZM618.376 483.727H683.83V473.727H618.376V483.727ZM678.83 478.727V488.102H688.83V478.727H678.83ZM683.83 483.102H656.387V493.102H683.83V483.102ZM651.387 488.102V566H661.387V488.102H651.387ZM656.387 561H645.819V571H656.387V561ZM650.819 566V488.102H640.819V566H650.819ZM645.819 483.102H618.376V493.102H645.819V483.102Z" fill="#F7F8F9" mask="url(#path-3-outside-1_0_1)"/>
<path fill-rule="evenodd" clip-rule="evenodd" d="M146 169C140.477 169 136 173.477 136 179V219H97C91.4772 219 87 223.477 87 229V269C87 274.523 91.4772 279 97 279H136V319C136 324.523 140.477 329 146 329H186C191.523 329 196 324.523 196 319V279H237C242.523 279 247 274.523 247 269V229C247 223.477 242.523 219 237 219H196V179C196 173.477 191.523 169 186 169H146Z" fill="#2ECC71"/>
<path d="M519 261.124C528.333 255.736 528.333 242.264 519 236.876L351 139.881C341.667 134.492 330 141.228 330 152.005V345.995C330 356.772 341.667 363.508 351 358.119L519 261.124Z" fill="#2ECC71"/>
<path fill-rule="evenodd" clip-rule="evenodd" d="M633 230C649.569 230 663 216.569 663 200C663 183.431 649.569 170 633 170C616.431 170 603 183.431 603 200C603 216.569 616.431 230 633 230ZM633 330C649.569 330 663 316.569 663 300C663 283.431 649.569 270 633 270C616.431 270 603 283.431 603 300C603 316.569 616.431 330 633 330ZM613 250C613 266.569 599.569 280 583 280C566.431 280 553 266.569 553 250C553 233.431 566.431 220 583 220C599.569 220 613 233.431 613 250ZM683 280C699.569 280 713 266.569 713 250C713 233.431 699.569 220 683 220C666.431 220 653 233.431 653 250C653 266.569 666.431 280 683 280Z" fill="#2ECC71"/>
</svg>
